<svg xmlns="http://www.w3.org/2000/svg" xmlns:xlink="http://www.w3.org/1999/xlink" width="500" zoomAndPan="magnify" viewBox="0 0 375 374.999991" height="500" preserveAspectRatio="xMidYMid meet" version="1.0"><defs><clipPath id="e9473606dd"><path d="M 118.8125 118.8125 L 256.1875 118.8125 L 256.1875 256.1875 L 118.8125 256.1875 Z M 118.8125 118.8125 " clip-rule="nonzero"/></clipPath></defs><path stroke-linecap="butt" transform="matrix(0.749962, 0.00749962, -0.00749962, 0.749962, 37.499998, 36.000108)" fill="none" stroke-linejoin="miter" d="M 0.00208388 7.500211 L 200.012094 7.500211 " stroke="#640380" stroke-width="15" stroke-opacity="1" stroke-miterlimit="4"/><path stroke-linecap="butt" transform="matrix(0.749962, 0.00749962, -0.00749962, 0.749962, 187.612492, 324.750564)" fill="none" stroke-linejoin="miter" d="M -0.00208033 7.499644 L 200.00793 7.499644 " stroke="#640380" stroke-width="15" stroke-opacity="1" stroke-miterlimit="4"/><path stroke-linecap="butt" transform="matrix(-0.000000000000000121, 0.75, -0.75, -0.000000000000000121, 44.621253, 36.003821)" fill="none" stroke-linejoin="miter" d="M 0.000113886 7.500213 L 200.010544 7.500213 " stroke="#640380" stroke-width="15" stroke-opacity="1" stroke-miterlimit="4"/><path stroke-linecap="butt" transform="matrix(-0.000000000000000121, 0.75, -0.75, -0.000000000000000121, 344.666233, 187.503739)" fill="none" stroke-linejoin="miter" d="M 0.00022315 7.497686 L 200.010653 7.497686 " stroke="#640380" stroke-width="15" stroke-opacity="1" stroke-miterlimit="4"/><g clip-path="url(#e9473606dd)"><path fill="#640380" d="M 118.8125 118.8125 L 256.1875 118.8125 L 256.1875 256.1875 L 118.8125 256.1875 Z M 118.8125 118.8125 " fill-opacity="1" fill-rule="nonzero"/></g></svg>